<svg xmlns="http://www.w3.org/2000/svg" version="1.1" xmlns:xlink="http://www.w3.org/1999/xlink" xmlns:svgjs="http://svgjs.dev/svgjs" viewBox="0 0 600 600"><path d="M110.42471062327516 401.54760183397445C62.87342710480186 356.4438090076398 18.29409793203166 269.9074587573957 -6.006006844986558 221.1324254423729C-30.306111622004792 172.3573921273501 -69.29117453907836 138.96659824752322 -35.375918038834214 108.89740194383774C-1.4606615385900739 78.82820564015223 135.9485753693689 46.136695837016035 197.48553215647829 40.717247620259855C259.0224889435877 35.297799403503674 308.49679314280644 43.8640243759107 333.84582268382206 76.38071264330063C359.1948522248377 108.89740091069055 337.6918869334966 190.3639438699038 349.57970940257206 235.81737722459945C361.4675318716476 281.27081057929513 396.7813543000331 310.64071605109683 405.1727574982752 349.10131277147445C413.5641606965174 387.5619094918521 420.906639130762 442.805312608714 399.9281285920253 466.5809575468651C378.94961805328825 490.3566024850162 327.5522639273117 502.59407501919577 279.3016942658533 491.7551824003807C231.05112460439503 480.9162897815656 157.9759941417485 446.6513946603091 110.42471062327516 401.54760183397445C62.87342710480186 356.4438090076398 18.29409793203166 269.9074587573957 -6.006006844986558 221.1324254423729 " fill="hsl(145, 69%, 60%)" transform="matrix(0.6551453860330859,-0.5497322517878591,0.5497322517878591,0.6551453860330859,-28.191787809717425,267.2236208834206)" fill-opacity="0.15"></path><path d="M206.21739305808399 351.0463160234908C158.6661095396107 305.94252319715616 114.08678036684049 219.40617294691208 89.78667558982227 170.63113963188925C65.48657081280403 121.85610631686646 26.50150789573047 88.46531243703959 60.41676439597461 58.3961161333541C94.33202089621875 28.326919829668597 231.74125780417774 -4.364589973467602 293.2782145912871 -9.784038190223782C354.8151713783965 -15.203486406979962 404.28947557761524 -6.637261434572935 429.63850511863086 25.87942683281699C454.9875346596465 58.39611510020691 433.48456936830536 139.86265805942017 445.37239183738086 185.31609141411582C457.26021430645636 230.7695247688115 492.5740367348418 260.1394302406132 500.965439933084 298.6000269609908C509.3568431313262 337.06062368136844 516.6993215655709 392.3040267982304 495.720811026834 416.07967173638144C474.742300488097 439.85531667453256 423.3449463621204 452.09278920871213 375.0943767006621 441.25389658989707C326.8438070392038 430.415003971082 253.7686765765573 396.1501088498255 206.21739305808399 351.0463160234908C158.6661095396107 305.94252319715616 114.08678036684049 219.40617294691208 89.78667558982227 170.63113963188925 " fill-opacity="0.15" fill="hsl(145, 69%, 60%)" opacity="1" stroke-opacity="1" stroke-width="0" stroke="hsl(340, 45%, 30%)" transform="matrix(0.620832146439603,-0.52094002510047,0.52094002510047,0.620832146439603,71.66229175972455,325.657094687843)"></path></svg>